# xmcd
#
# Track frame offsets: 
#        150
#        3236
#        12780
#        28425
#        43357
#        56120
#        74123
#        81973
#        97881
#        112410
#        123506
#        139144
#        159019
#        176266
#        194796
#        211035
#        223492
#        237115
#        254060
#        272702
#        285677
#        301002
#        316334
#        328593
#        342909
#
# Disc length: 4771 seconds
#
# Revision: 0
# Processed by: cddbd v1.5.2PL0 Copyright (c) Steve Scherf et al.
# Submitted via: ExactAudioCopy v0.95a5
#
DISCID=8112a119
DTITLE=Various Artist - Country and Western  Part-3  CD-2 
DYEAR=2005
DGENRE=Country
TTITLE0=Saloon Brawl
TTITLE1=KILLBILLY - Maybellene
TTITLE2=SHANIA TWAIN - I'm Holdin' On To Love (To Save My Life)
TTITLE3=SHAVER  -  She Can Dance
TTITLE4=REBA McENTIRE - Climb That Mountine High
TTITLE5=TOBY KEITH - Nights I Can't Remember, Friends I'll Never Forge
TTITLE5=t
TTITLE6=LORETTA LYNN - God Makes No Mistakes
TTITLE7=GARTH BROOKS - Squeeze Me In (with Trisha Yearwood)
TTITLE8=TRISHA YEARWOOD - You Done Me Wrong
TTITLE9=ALAN JACKSON - Chattahoochie
TTITLE10=SHAVER - Heart to Heart
TTITLE11=SHANIA TWAIN - Rock This Country
TTITLE12=MARTY STUART - Beyond the Great Divide
TTITLE13=SHENANDOAH - Lonely To Long
TTITLE14=KILLBILLY - Hang My Head
TTITLE15=WILLIE NELSON - Playin' Dominoes and Shootin' Dice
TTITLE16=SHANIA TWAIN -  No One Needs To Know
TTITLE17=ALABAMA - If You're Gonna Play In Texas
TTITLE18=GARTH BROOKS - Don't Cross the River
TTITLE19=SHAVER - Way Down Texas Way
TTITLE20=SHENANDOAH - Two Dozen Roses
TTITLE21=LEE GIBSON - Too Bad She's Gone Again
TTITLE22=LORETTA LYNN - High On a Mountain Top
TTITLE23=CARL MANN - Paradise
TTITLE24=CARRY and RON - You Can't Bring Back
EXTD=
EXTT0=
EXTT1=
EXTT2=
EXTT3=
EXTT4=
EXTT5=
EXTT6=
EXTT7=
EXTT8=
EXTT9=
EXTT10=
EXTT11=
EXTT12=
EXTT13=
EXTT14=
EXTT15=
EXTT16=
EXTT17=
EXTT18=
EXTT19=
EXTT20=
EXTT21=
EXTT22=
EXTT23=
EXTT24=
PLAYORDER=
